<svg width="20" height="20" viewBox="0 0 20 20" fill="none" xmlns="http://www.w3.org/2000/svg">
<g id="Notifica&#195;&#167;&#195;&#163;o" clip-path="url(#clip0_706_1531)">
<path id="Vector" d="M10 19.0444C10.35 19.0364 10.6858 18.9048 10.9481 18.673C11.2104 18.4412 11.3823 18.1241 11.4333 17.7778H8.51111C8.56359 18.1335 8.74351 18.4581 9.01739 18.6911C9.29126 18.9241 9.64046 19.0496 10 19.0444V19.0444Z" fill="white"/>
<path id="Vector_2" d="M18.0611 15.4611C17.5254 14.9835 17.0564 14.436 16.6667 13.8333C16.2412 13.0014 15.9862 12.0929 15.9167 11.1611V8.41667C15.9144 8.08331 15.8847 7.7507 15.8278 7.42222C15.3905 7.33482 14.9703 7.17722 14.5833 6.95556C14.7308 7.43047 14.8057 7.92494 14.8056 8.42222V11.1667C14.8736 12.3033 15.1863 13.4119 15.7222 14.4167C16.1058 15.0244 16.5609 15.584 17.0778 16.0833H2.85C3.36689 15.584 3.822 15.0244 4.20555 14.4167C4.74145 13.4119 5.05413 12.3033 5.12222 11.1667V8.41667C5.1193 7.77372 5.24322 7.1365 5.48691 6.54151C5.7306 5.94652 6.08925 5.40545 6.54234 4.94926C6.99543 4.49307 7.53405 4.13074 8.12737 3.88301C8.72069 3.63528 9.35704 3.50701 10 3.50556C10.941 3.50631 11.8608 3.78459 12.6444 4.30556C12.5581 3.98833 12.5096 3.66198 12.5 3.33334V2.98334C11.9199 2.69798 11.2967 2.51028 10.6556 2.42778V1.72778C10.6556 1.53108 10.5774 1.34243 10.4383 1.20334C10.2992 1.06425 10.1106 0.986115 9.91389 0.986115C9.71718 0.986115 9.52854 1.06425 9.38945 1.20334C9.25036 1.34243 9.17222 1.53108 9.17222 1.72778V2.45556C7.73651 2.65809 6.42254 3.37319 5.4729 4.46885C4.52326 5.56451 4.00207 6.96675 4.00555 8.41667V11.1611C3.93597 12.0929 3.68099 13.0014 3.25555 13.8333C2.87271 14.4346 2.41122 14.9821 1.88333 15.4611C1.82407 15.5132 1.77658 15.5773 1.74401 15.6491C1.71144 15.7209 1.69454 15.7989 1.69444 15.8778V16.6333C1.69444 16.7807 1.75297 16.922 1.85716 17.0262C1.96135 17.1304 2.10266 17.1889 2.25 17.1889H17.6944C17.8418 17.1889 17.9831 17.1304 18.0873 17.0262C18.1915 16.922 18.25 16.7807 18.25 16.6333V15.8778C18.2499 15.7989 18.233 15.7209 18.2004 15.6491C18.1679 15.5773 18.1204 15.5132 18.0611 15.4611V15.4611Z" fill="white"/>
<path id="Vector_3" d="M16.6667 6.11111C18.2008 6.11111 19.4444 4.86746 19.4444 3.33333C19.4444 1.79921 18.2008 0.555557 16.6667 0.555557C15.1325 0.555557 13.8889 1.79921 13.8889 3.33333C13.8889 4.86746 15.1325 6.11111 16.6667 6.11111Z" fill="white"/>
</g>
<defs>
<clipPath id="clip0_706_1531">
<rect width="20" height="20" fill="white"/>
</clipPath>
</defs>
</svg>
